<mxfile host="Electron" agent="Mozilla/5.0 (Macintosh; Intel Mac OS X 10_15_7) AppleWebKit/537.36 (KHTML, like Gecko) draw.io/25.0.2 Chrome/128.0.6613.186 Electron/32.2.5 Safari/537.36" version="25.0.2">
  <diagram name="Page-1" id="dILYRepsp4MGQZmpo2QV">
    <mxGraphModel dx="855" dy="619" grid="1" gridSize="10" guides="1" tooltips="1" connect="1" arrows="1" fold="1" page="1" pageScale="1" pageWidth="1920" pageHeight="1200" math="0" shadow="0">
      <root>
        <mxCell id="0" />
        <mxCell id="1" parent="0" />
        <mxCell id="OQ_cecoE17QJEukBuf5W-1" style="edgeStyle=orthogonalEdgeStyle;rounded=0;orthogonalLoop=1;jettySize=auto;html=1;exitX=0.5;exitY=0;exitDx=0;exitDy=0;" parent="1" source="OQ_cecoE17QJEukBuf5W-2" edge="1">
          <mxGeometry relative="1" as="geometry">
            <mxPoint x="430" y="160.375" as="targetPoint" />
          </mxGeometry>
        </mxCell>
        <mxCell id="OQ_cecoE17QJEukBuf5W-2" value="" style="shape=trapezoid;perimeter=trapezoidPerimeter;whiteSpace=wrap;html=1;fixedSize=1;rotation=90;" parent="1" vertex="1">
          <mxGeometry x="258.75" y="120.25" width="222.5" height="80" as="geometry" />
        </mxCell>
        <mxCell id="OQ_cecoE17QJEukBuf5W-3" style="edgeStyle=orthogonalEdgeStyle;rounded=0;orthogonalLoop=1;jettySize=auto;html=1;exitX=1;exitY=0.5;exitDx=0;exitDy=0;" parent="1" source="OQ_cecoE17QJEukBuf5W-4" edge="1">
          <mxGeometry relative="1" as="geometry">
            <mxPoint x="329.9999999999999" y="70" as="targetPoint" />
          </mxGeometry>
        </mxCell>
        <mxCell id="OQ_cecoE17QJEukBuf5W-4" value="Render_Start" style="rounded=0;whiteSpace=wrap;html=1;absoluteArcSize=0;arcSize=12;" parent="1" vertex="1">
          <mxGeometry x="130" y="50" width="120" height="40" as="geometry" />
        </mxCell>
        <mxCell id="OQ_cecoE17QJEukBuf5W-5" style="edgeStyle=orthogonalEdgeStyle;rounded=0;orthogonalLoop=1;jettySize=auto;html=1;exitX=1;exitY=0.5;exitDx=0;exitDy=0;" parent="1" source="OQ_cecoE17QJEukBuf5W-6" edge="1">
          <mxGeometry relative="1" as="geometry">
            <mxPoint x="329.9999999999999" y="130" as="targetPoint" />
          </mxGeometry>
        </mxCell>
        <mxCell id="OQ_cecoE17QJEukBuf5W-6" value="Render_Menu" style="rounded=0;whiteSpace=wrap;html=1;" parent="1" vertex="1">
          <mxGeometry x="130" y="110" width="120" height="40" as="geometry" />
        </mxCell>
        <mxCell id="OQ_cecoE17QJEukBuf5W-7" value="Render_Play" style="rounded=0;whiteSpace=wrap;html=1;" parent="1" vertex="1">
          <mxGeometry x="50" y="167.75" width="120" height="42.5" as="geometry" />
        </mxCell>
        <mxCell id="OQ_cecoE17QJEukBuf5W-8" style="edgeStyle=orthogonalEdgeStyle;rounded=0;orthogonalLoop=1;jettySize=auto;html=1;exitX=1;exitY=0.5;exitDx=0;exitDy=0;" parent="1" source="OQ_cecoE17QJEukBuf5W-10" edge="1">
          <mxGeometry relative="1" as="geometry">
            <mxPoint x="220" y="259.80952380952374" as="targetPoint" />
          </mxGeometry>
        </mxCell>
        <mxCell id="OQ_cecoE17QJEukBuf5W-9" style="edgeStyle=orthogonalEdgeStyle;rounded=0;orthogonalLoop=1;jettySize=auto;html=1;exitX=1;exitY=0.5;exitDx=0;exitDy=0;entryX=0;entryY=0.25;entryDx=0;entryDy=0;" parent="1" source="OQ_cecoE17QJEukBuf5W-10" target="OQ_cecoE17QJEukBuf5W-25" edge="1">
          <mxGeometry relative="1" as="geometry">
            <Array as="points">
              <mxPoint x="180" y="260" />
              <mxPoint x="180" y="298" />
            </Array>
          </mxGeometry>
        </mxCell>
        <mxCell id="OQ_cecoE17QJEukBuf5W-10" value="Render_WinLose" style="rounded=0;whiteSpace=wrap;html=1;" parent="1" vertex="1">
          <mxGeometry x="50" y="240" width="120" height="40" as="geometry" />
        </mxCell>
        <mxCell id="OQ_cecoE17QJEukBuf5W-11" style="edgeStyle=orthogonalEdgeStyle;rounded=0;orthogonalLoop=1;jettySize=auto;html=1;exitX=1;exitY=0.5;exitDx=0;exitDy=0;entryX=0.63;entryY=1;entryDx=0;entryDy=0;entryPerimeter=0;" parent="1" source="OQ_cecoE17QJEukBuf5W-7" target="OQ_cecoE17QJEukBuf5W-2" edge="1">
          <mxGeometry relative="1" as="geometry" />
        </mxCell>
        <mxCell id="OQ_cecoE17QJEukBuf5W-12" value="S_PLAY3" style="text;html=1;align=center;verticalAlign=middle;resizable=0;points=[];autosize=1;strokeColor=none;fillColor=none;" parent="1" vertex="1">
          <mxGeometry x="322" y="185" width="70" height="30" as="geometry" />
        </mxCell>
        <mxCell id="OQ_cecoE17QJEukBuf5W-13" value="S_START" style="text;html=1;align=center;verticalAlign=middle;resizable=0;points=[];autosize=1;strokeColor=none;fillColor=none;" parent="1" vertex="1">
          <mxGeometry x="320" y="56" width="80" height="30" as="geometry" />
        </mxCell>
        <mxCell id="OQ_cecoE17QJEukBuf5W-14" value="S_MENU" style="text;html=1;align=center;verticalAlign=middle;resizable=0;points=[];autosize=1;strokeColor=none;fillColor=none;" parent="1" vertex="1">
          <mxGeometry x="323" y="116" width="70" height="30" as="geometry" />
        </mxCell>
        <mxCell id="OQ_cecoE17QJEukBuf5W-15" value="S_PLAY2" style="text;html=1;align=center;verticalAlign=middle;resizable=0;points=[];autosize=1;strokeColor=none;fillColor=none;" parent="1" vertex="1">
          <mxGeometry x="322" y="174" width="70" height="30" as="geometry" />
        </mxCell>
        <mxCell id="OQ_cecoE17QJEukBuf5W-16" value="S_PLAY1" style="text;html=1;align=center;verticalAlign=middle;resizable=0;points=[];autosize=1;strokeColor=none;fillColor=none;" parent="1" vertex="1">
          <mxGeometry x="322" y="163" width="70" height="30" as="geometry" />
        </mxCell>
        <mxCell id="OQ_cecoE17QJEukBuf5W-17" value="S_WIN" style="text;html=1;align=center;verticalAlign=middle;resizable=0;points=[];autosize=1;strokeColor=none;fillColor=none;" parent="1" vertex="1">
          <mxGeometry x="322" y="228" width="60" height="30" as="geometry" />
        </mxCell>
        <mxCell id="OQ_cecoE17QJEukBuf5W-18" value="S_LOSE" style="text;html=1;align=center;verticalAlign=middle;resizable=0;points=[];autosize=1;strokeColor=none;fillColor=none;" parent="1" vertex="1">
          <mxGeometry x="321" y="239" width="70" height="30" as="geometry" />
        </mxCell>
        <mxCell id="OQ_cecoE17QJEukBuf5W-19" value="pixel_start" style="text;html=1;align=center;verticalAlign=middle;resizable=0;points=[];autosize=1;strokeColor=none;fillColor=none;" parent="1" vertex="1">
          <mxGeometry x="240" y="46" width="80" height="30" as="geometry" />
        </mxCell>
        <mxCell id="OQ_cecoE17QJEukBuf5W-20" value="pixel_menu" style="text;html=1;align=center;verticalAlign=middle;resizable=0;points=[];autosize=1;strokeColor=none;fillColor=none;" parent="1" vertex="1">
          <mxGeometry x="242" y="106" width="80" height="30" as="geometry" />
        </mxCell>
        <mxCell id="OQ_cecoE17QJEukBuf5W-21" value="pixel_play" style="text;html=1;align=center;verticalAlign=middle;resizable=0;points=[];autosize=1;strokeColor=none;fillColor=none;" parent="1" vertex="1">
          <mxGeometry x="159" y="165" width="80" height="30" as="geometry" />
        </mxCell>
        <mxCell id="OQ_cecoE17QJEukBuf5W-22" value="" style="shape=trapezoid;perimeter=trapezoidPerimeter;whiteSpace=wrap;html=1;fixedSize=1;rotation=90;size=8;" parent="1" vertex="1">
          <mxGeometry x="208" y="235" width="55" height="30" as="geometry" />
        </mxCell>
        <mxCell id="OQ_cecoE17QJEukBuf5W-23" style="edgeStyle=orthogonalEdgeStyle;rounded=0;orthogonalLoop=1;jettySize=auto;html=1;exitX=0.5;exitY=0;exitDx=0;exitDy=0;entryX=0.129;entryY=0.367;entryDx=0;entryDy=0;entryPerimeter=0;" parent="1" source="OQ_cecoE17QJEukBuf5W-22" target="OQ_cecoE17QJEukBuf5W-18" edge="1">
          <mxGeometry relative="1" as="geometry" />
        </mxCell>
        <mxCell id="OQ_cecoE17QJEukBuf5W-24" style="edgeStyle=orthogonalEdgeStyle;rounded=0;orthogonalLoop=1;jettySize=auto;html=1;exitX=1;exitY=0.5;exitDx=0;exitDy=0;entryX=1;entryY=0.5;entryDx=0;entryDy=0;" parent="1" source="OQ_cecoE17QJEukBuf5W-25" target="OQ_cecoE17QJEukBuf5W-22" edge="1">
          <mxGeometry relative="1" as="geometry" />
        </mxCell>
        <mxCell id="OQ_cecoE17QJEukBuf5W-25" value="==" style="rounded=1;whiteSpace=wrap;html=1;" parent="1" vertex="1">
          <mxGeometry x="200" y="290" width="30" height="30" as="geometry" />
        </mxCell>
        <mxCell id="OQ_cecoE17QJEukBuf5W-26" value="" style="endArrow=classic;html=1;rounded=0;" parent="1" edge="1">
          <mxGeometry width="50" height="50" relative="1" as="geometry">
            <mxPoint x="180" y="310" as="sourcePoint" />
            <mxPoint x="200" y="310" as="targetPoint" />
          </mxGeometry>
        </mxCell>
        <mxCell id="OQ_cecoE17QJEukBuf5W-27" value="12&#39;heee" style="text;html=1;align=center;verticalAlign=middle;resizable=0;points=[];autosize=1;strokeColor=none;fillColor=none;" parent="1" vertex="1">
          <mxGeometry x="121" y="294" width="70" height="30" as="geometry" />
        </mxCell>
        <mxCell id="OQ_cecoE17QJEukBuf5W-28" style="edgeStyle=orthogonalEdgeStyle;rounded=0;orthogonalLoop=1;jettySize=auto;html=1;exitX=0.5;exitY=1;exitDx=0;exitDy=0;entryX=0.25;entryY=1;entryDx=0;entryDy=0;" parent="1" source="OQ_cecoE17QJEukBuf5W-29" target="OQ_cecoE17QJEukBuf5W-22" edge="1">
          <mxGeometry relative="1" as="geometry">
            <Array as="points">
              <mxPoint x="195" y="236" />
              <mxPoint x="221" y="236" />
            </Array>
          </mxGeometry>
        </mxCell>
        <mxCell id="OQ_cecoE17QJEukBuf5W-29" value="tint" style="rounded=1;whiteSpace=wrap;html=1;" parent="1" vertex="1">
          <mxGeometry x="180" y="200.25" width="30" height="30" as="geometry" />
        </mxCell>
        <mxCell id="OQ_cecoE17QJEukBuf5W-30" value="" style="endArrow=classic;html=1;rounded=0;entryX=0.5;entryY=0;entryDx=0;entryDy=0;endSize=4;" parent="1" target="OQ_cecoE17QJEukBuf5W-29" edge="1">
          <mxGeometry width="50" height="50" relative="1" as="geometry">
            <mxPoint x="195" y="189" as="sourcePoint" />
            <mxPoint x="260" y="210" as="targetPoint" />
          </mxGeometry>
        </mxCell>
        <mxCell id="OQ_cecoE17QJEukBuf5W-31" value="" style="ellipse;whiteSpace=wrap;html=1;aspect=fixed;fontFamily=Helvetica;fontSize=11;fontColor=default;labelBackgroundColor=default;fillColor=#000000;strokeColor=none;" parent="1" vertex="1">
          <mxGeometry x="193" y="187" width="4" height="4" as="geometry" />
        </mxCell>
        <mxCell id="OQ_cecoE17QJEukBuf5W-32" value="" style="ellipse;whiteSpace=wrap;html=1;aspect=fixed;fontFamily=Helvetica;fontSize=11;fontColor=default;labelBackgroundColor=default;fillColor=#000000;strokeColor=none;" parent="1" vertex="1">
          <mxGeometry x="178" y="258" width="4" height="4" as="geometry" />
        </mxCell>
        <mxCell id="OQ_cecoE17QJEukBuf5W-33" value="1" style="text;html=1;align=center;verticalAlign=middle;resizable=0;points=[];autosize=1;strokeColor=none;fillColor=none;" parent="1" vertex="1">
          <mxGeometry x="211" y="222" width="30" height="30" as="geometry" />
        </mxCell>
        <mxCell id="OQ_cecoE17QJEukBuf5W-34" value="0" style="text;html=1;align=center;verticalAlign=middle;resizable=0;points=[];autosize=1;strokeColor=none;fillColor=none;" parent="1" vertex="1">
          <mxGeometry x="211" y="245" width="30" height="30" as="geometry" />
        </mxCell>
        <mxCell id="OQ_cecoE17QJEukBuf5W-35" value="pixel" style="text;html=1;align=center;verticalAlign=middle;resizable=0;points=[];autosize=1;strokeColor=none;fillColor=none;" parent="1" vertex="1">
          <mxGeometry x="500" y="144.25" width="50" height="30" as="geometry" />
        </mxCell>
        <mxCell id="OQ_cecoE17QJEukBuf5W-37" value="&lt;p style=&quot;line-height: 0%;&quot;&gt;&lt;b&gt;DFF&lt;/b&gt;&lt;/p&gt;&lt;p&gt;&lt;/p&gt;" style="rounded=1;whiteSpace=wrap;html=1;" parent="1" vertex="1">
          <mxGeometry x="430" y="150" width="60" height="60" as="geometry" />
        </mxCell>
        <mxCell id="OQ_cecoE17QJEukBuf5W-38" value="" style="triangle;whiteSpace=wrap;html=1;rotation=-90;" parent="1" vertex="1">
          <mxGeometry x="456" y="198.5" width="8" height="14.5" as="geometry" />
        </mxCell>
        <mxCell id="OQ_cecoE17QJEukBuf5W-39" value="D" style="text;html=1;align=center;verticalAlign=middle;resizable=0;points=[];autosize=1;strokeColor=none;fillColor=none;fontColor=#FFFFFF;connectable=0;allowArrows=0;fontSize=11;pointerEvents=1;" parent="1" vertex="1">
          <mxGeometry x="423" y="146" width="30" height="30" as="geometry" />
        </mxCell>
        <mxCell id="OQ_cecoE17QJEukBuf5W-40" value="Q" style="text;html=1;align=center;verticalAlign=middle;resizable=0;points=[];autosize=1;strokeColor=none;fillColor=none;fontColor=#FFFFFF;connectable=0;allowArrows=0;fontSize=11;pointerEvents=1;" parent="1" vertex="1">
          <mxGeometry x="467" y="146" width="30" height="30" as="geometry" />
        </mxCell>
        <mxCell id="OQ_cecoE17QJEukBuf5W-41" value="" style="endArrow=classic;html=1;rounded=0;strokeColor=default;align=center;verticalAlign=middle;fontFamily=Helvetica;fontSize=11;fontColor=default;labelBackgroundColor=none;autosize=1;resizable=0;edgeStyle=orthogonalEdgeStyle;endSize=4;" parent="1" edge="1">
          <mxGeometry width="50" height="50" relative="1" as="geometry">
            <mxPoint x="460" y="230" as="sourcePoint" />
            <mxPoint x="460" y="210" as="targetPoint" />
            <Array as="points">
              <mxPoint x="460" y="220" />
              <mxPoint x="460" y="220" />
            </Array>
          </mxGeometry>
        </mxCell>
        <mxCell id="OQ_cecoE17QJEukBuf5W-42" style="edgeStyle=orthogonalEdgeStyle;rounded=0;orthogonalLoop=1;jettySize=auto;html=1;exitX=0.5;exitY=0;exitDx=0;exitDy=0;" parent="1" edge="1">
          <mxGeometry relative="1" as="geometry">
            <mxPoint x="510" y="160.375" as="targetPoint" />
            <mxPoint x="490" y="160" as="sourcePoint" />
          </mxGeometry>
        </mxCell>
        <mxCell id="OQ_cecoE17QJEukBuf5W-43" value="clk_25MHz" style="text;html=1;align=center;verticalAlign=middle;resizable=0;points=[];autosize=1;strokeColor=none;fillColor=none;" parent="1" vertex="1">
          <mxGeometry x="420" y="223" width="80" height="30" as="geometry" />
        </mxCell>
      </root>
    </mxGraphModel>
  </diagram>
</mxfile>
